<svg width="60" height="60" viewBox="0 0 241 241" fill="none" xmlns="http://www.w3.org/2000/svg" class="w-16 mx-auto"><path fill-rule="evenodd" clip-rule="evenodd" d="M225.632 15.373c-22.258-22.264-62.823-19.604-105.09 3.191-6.311 3.397-5.839 17.351.137 21.003a248.3 248.3 0 0 1 80.72 80.863c3.632 5.98 17.745 6.185 21.042.061a194.957 194.957 0 0 0-2.396-4.324c.817 1.439 1.616 2.88 2.396 4.323 22.79-42.277 25.448-82.854 3.191-105.117Zm-47.038 47.05a263.74 263.74 0 0 0-39.547-32.689c16.363-7.569 31.95-11.626 45.153-11.626 11.805 0 21.711 3.238 28.578 10.107 14.57 14.573 12.838 42.779-1.504 73.766a266.286 266.286 0 0 0-32.68-39.558Z" fill="#FFC750"></path><path fill-rule="evenodd" clip-rule="evenodd" d="M235.446 151.095a175.874 175.874 0 0 0-13.027-30.494c-3.344-6.218-17.43-6.031-21.053-.061a240.808 240.808 0 0 1-35.677 45.165 240.491 240.491 0 0 1-45.086 35.709c-5.979 3.653-6.247 17.726-.136 21.009C142.979 234.57 165.005 241 184.052 241c16.721 0 31.147-4.955 41.559-15.37 16.296-16.296 19.777-42.762 9.835-74.535Zm-22.695 61.675c-14.577 14.578-42.775 12.83-73.77-1.52a263.834 263.834 0 0 0 39.568-32.7 265.546 265.546 0 0 0 32.712-39.509c14.335 30.981 16.068 59.165 1.49 73.729Z" fill="#FF6895"></path><path fill-rule="evenodd" clip-rule="evenodd" d="M120.378 18.58A174.81 174.81 0 0 0 89.873 5.552c-31.751-9.94-58.213-6.46-74.507 9.834C4.955 25.8 0 40.224 0 56.943c0 19.046 6.43 41.084 18.558 63.595 3.299 6.111 17.37 5.835 21.021-.152a248.102 248.102 0 0 1 80.936-80.8c5.941-3.612 6.065-17.678-.137-21.007Zm-90.633 83.43c-14.348-30.992-16.096-59.203-1.52-73.779 11.263-11.263 31.235-13.163 56.222-5.32a148.821 148.821 0 0 1 17.54 6.795 272.405 272.405 0 0 0-72.242 72.304Z" fill="#5FC5A6"></path><path fill-rule="evenodd" clip-rule="evenodd" d="M120.973 201.408a241.042 241.042 0 0 1-45.4-35.702 240.382 240.382 0 0 1-35.835-45.231c-3.636-5.935-17.758-6.049-21.098.152a175.337 175.337 0 0 0-13.06 30.472c-9.991 31.766-6.482 58.227 9.856 74.519C25.688 235.817 39.936 241 56.992 241a112.09 112.09 0 0 0 33.226-5.563 177.037 177.037 0 0 0 30.617-13.025c4.928-2.629 6.094-17.383.138-21.004Zm-36.201 16.687c-25.08 7.827-45.126 5.927-56.43-5.335-11.304-11.262-13.211-31.233-5.354-56.219a147.372 147.372 0 0 1 6.819-17.524 266.397 266.397 0 0 0 32.875 39.532 264.292 264.292 0 0 0 39.694 32.737 147.298 147.298 0 0 1-17.604 6.809Z" fill="#5666F6"></path><path fill-rule="evenodd" clip-rule="evenodd" d="M80 119.799 120.5 56l40.5 63.799L120.5 143 80 119.799Z" fill="#1F294F"></path><path fill-rule="evenodd" clip-rule="evenodd" d="m80 130 40.5 23.157L161 130l-40.5 55L80 130Z" fill="#1F294F"></path><path fill-rule="evenodd" clip-rule="evenodd" d="M139 30.169A191.112 191.112 0 0 0 120.576 40 180.262 180.262 0 0 0 102 30.123 214.501 214.501 0 0 1 120.439 19 220.649 220.649 0 0 1 139 30.169Z" fill="#5F9A34"></path><path fill-rule="evenodd" clip-rule="evenodd" d="M222 120.538A219.324 219.324 0 0 1 210.871 139 192.085 192.085 0 0 0 201 120.477 194.499 194.499 0 0 0 210.856 102 223.556 223.556 0 0 1 222 120.538Z" fill="#FF512F"></path><path fill-rule="evenodd" clip-rule="evenodd" d="M139 210.831c-1.28.867-2.56 1.702-3.84 2.523A213.69 213.69 0 0 1 120.439 222c-6.126-3.282-12.272-6.99-18.439-11.123A180.457 180.457 0 0 0 120.576 201 184.758 184.758 0 0 0 139 210.831Z" fill="#552990"></path><path fill-rule="evenodd" clip-rule="evenodd" d="M40 120.416c-3.647 6-6.947 12.205-9.885 18.584A222.655 222.655 0 0 1 19 120.569 218.653 218.653 0 0 1 30.176 102 184.59 184.59 0 0 0 40 120.416Z" fill="#204FA0"></path></svg>