<svg width="768" height="768" viewBox="0 0 768 768" fill="none" xmlns="http://www.w3.org/2000/svg">
<g clip-path="url(#clip0_9644_417886)">
<path fill-rule="evenodd" clip-rule="evenodd" d="M384 544C427.463 544 466.879 526.67 495.714 498.543C496.505 497.771 497.77 497.77 498.551 498.551L565.019 565.019L634.009 634.009C635.502 635.502 633.965 637.988 631.963 637.321L521.862 600.621C521.292 600.431 520.667 600.508 520.158 600.828C480.721 625.645 434.037 640 384 640C242.615 640 128 525.385 128 384C128 242.615 242.615 128 384 128C525.385 128 640 242.615 640 384C640 444.388 619.091 499.892 584.118 543.668C583.378 544.594 581.998 544.665 581.159 543.826L445.99 408.657C444.498 407.165 446.035 404.678 448.037 405.346L533.933 433.978C534.981 434.327 536.115 433.761 536.451 432.709C541.354 417.35 544 400.984 544 384C544 295.634 472.366 224 384 224C295.634 224 224 295.634 224 384C224 472.366 295.634 544 384 544Z" fill="#009FD1"/>
</g>
<defs>
<clipPath id="clip0_9644_417886">
<rect width="768" height="768" fill="white"/>
</clipPath>
</defs>
</svg>
